<?xml version="1.0" encoding="UTF-8"?>
<svg version="1.1" xmlns="http://www.w3.org/2000/svg" width="1024" height="1024">
<path d="M0 0 C337.92 0 675.84 0 1024 0 C1024 337.92 1024 675.84 1024 1024 C686.08 1024 348.16 1024 0 1024 C0 686.08 0 348.16 0 0 Z " fill="#FEC354" transform="translate(0,0)"/>
<path d="M0 0 C7.34080269 3.73247793 13.01393943 8.90961609 18.78076172 14.71240234 C20.25280765 16.1900793 21.74803936 17.6389299 23.25390625 19.08203125 C29.44982029 25.10559719 35.01488523 31.42877371 40.3125 38.25 C40.75674316 38.81251465 41.20098633 39.3750293 41.65869141 39.95458984 C54.16129488 55.82839274 64.81354857 72.91214239 73.3125 91.25 C73.69784912 92.05646973 74.08319824 92.86293945 74.48022461 93.69384766 C77.79962003 100.76540827 80.43487373 107.95822374 82.875 115.375 C83.26486084 116.55408936 83.65472168 117.73317871 84.05639648 118.94799805 C91.66230836 142.31848427 91.66230836 142.31848427 91.3125 152.25 C91.77809326 151.94408936 92.24368652 151.63817871 92.72338867 151.32299805 C129.46933161 127.31588705 168.34540385 112.15268208 212.3125 109.25 C213.51261719 109.16492188 214.71273437 109.07984375 215.94921875 108.9921875 C223.49581942 108.70230527 230.13076025 109.91698544 236.16015625 114.72265625 C252.20736569 131.40071422 248.01664846 171.87829771 247.625 193.3125 C246.22523792 252.72825134 220.59268104 308.8319665 178.3125 350.25 C174.81186188 353.4629737 171.08470485 356.36435021 167.3125 359.25 C165.64522889 360.62426701 163.97855665 361.99926092 162.3125 363.375 C158.8347968 366.15449567 155.2696942 368.62477412 151.5 370.9921875 C150.52417969 371.60690918 149.54835938 372.22163086 148.54296875 372.85498047 C147.80691406 373.31533691 147.07085938 373.77569336 146.3125 374.25 C148.09203316 374.25213753 148.09203316 374.25213753 149.90751648 374.25431824 C161.13207129 374.27104634 172.35626626 374.31399702 183.5806303 374.38209057 C189.35011091 374.41626323 195.11932944 374.44145543 200.88891602 374.44555664 C206.46534937 374.44986042 212.04119249 374.4784953 217.61744118 374.52343178 C219.73626062 374.53634047 221.85515094 374.5407382 223.97400475 374.53615379 C239.63811007 374.51017561 252.32394417 375.22602105 264.15234375 386.78515625 C270.95971347 394.55269747 274.53437372 402.68371232 274.60302734 413.09643555 C274.60974457 413.74142502 274.61646179 414.38641449 274.62338257 415.0509491 C274.64222853 417.16295286 274.64628038 419.27463636 274.6484375 421.38671875 C274.65487658 422.8725446 274.66160574 424.35836921 274.66860962 425.8441925 C274.68055029 428.95336846 274.68429396 432.06243361 274.68310547 435.17163086 C274.68290289 439.12432266 274.71015575 443.07629059 274.74464989 447.02881145 C274.76707051 450.09779516 274.77093836 453.16660912 274.76988602 456.23566628 C274.77222114 457.69109392 274.78092457 459.14652777 274.79655075 460.6018734 C274.94058492 475.40640585 272.03857131 486.24179244 261.62109375 496.99609375 C253.72606412 504.34158535 244.77105227 506.02148381 234.3125 507.25 C234.18403687 508.18066284 234.18403687 508.18066284 234.05297852 509.13012695 C233.6632567 511.94133434 233.2691787 514.75191423 232.875 517.5625 C232.74029297 518.53896484 232.60558594 519.51542969 232.46679688 520.52148438 C232.33466797 521.45927734 232.20253906 522.39707031 232.06640625 523.36328125 C231.88573608 524.65939331 231.88573608 524.65939331 231.70141602 525.98168945 C231.3125 528.25 231.3125 528.25 230.3125 531.25 C231.00472656 531.22679687 231.69695313 531.20359375 232.41015625 531.1796875 C256.97824136 530.72652124 280.893416 537.4083727 299.24609375 554.21484375 C317.24379115 571.57605801 326.27247996 594.21126127 327.5 619.04296875 C327.83216154 639.07646149 322.93791847 657.35903179 314.3125 675.25 C313.78914062 676.33925781 313.26578125 677.42851563 312.7265625 678.55078125 C303.28107188 697.05012019 289.59310742 712.57236739 275.5625 727.6875 C274.96074951 728.3379126 274.35899902 728.9883252 273.73901367 729.65844727 C270.08746831 733.54361166 266.27712355 737.11880469 262.23193359 740.59106445 C259.4152064 743.02551641 256.71512695 745.57865816 254 748.125 C248.2979802 753.42291369 242.39941948 758.39680514 236.3125 763.25 C235.20636937 764.14762249 234.10093535 765.04610388 232.99609375 765.9453125 C219.59656742 776.81367402 205.89460619 787.32367759 191.5625 796.9375 C190.84860107 797.41832031 190.13470215 797.89914062 189.39916992 798.39453125 C181.04644233 803.90853273 172.14877595 809.38734928 161.78515625 807.9296875 C156.17435374 806.3873816 150.66424644 803.29873295 146.28125 799.48046875 C144.37390849 797.99883956 144.37390849 797.99883956 142.05078125 798.54296875 C141.25027344 798.83816406 140.44976563 799.13335938 139.625 799.4375 C130.71533867 802.63097927 122.5780446 803.54375035 113.13180542 803.51742554 C111.93005114 803.52195665 110.72829685 803.52648776 109.49012578 803.53115618 C106.17588247 803.5415826 102.86185719 803.54313357 99.54761314 803.54076743 C95.96461325 803.54035758 92.38164516 803.55141451 88.79866028 803.56088257 C81.78637007 803.57745805 74.7741135 803.58299058 67.76180534 803.58410732 C62.05752893 803.58505957 56.35326355 803.58917869 50.64899063 803.59550858 C34.45357243 803.61311267 18.25818067 803.62234891 2.06275283 803.62084763 C1.19061861 803.62076772 0.3184844 803.6206878 -0.58007812 803.62060547 C-1.45328531 803.62052371 -2.3264925 803.62044195 -3.22616051 803.62035771 C-17.36749383 803.61954536 -31.50872051 803.63867224 -45.650023 803.6668822 C-60.19251752 803.69566203 -74.73496012 803.70941965 -89.27748382 803.70769465 C-97.43298148 803.70703244 -105.58836737 803.71245021 -113.74383926 803.73405075 C-120.68950458 803.75232994 -127.63500748 803.75655504 -134.58068652 803.7430319 C-138.11883663 803.7365356 -141.65667576 803.73626256 -145.19479561 803.7537384 C-167.54597549 803.85714213 -186.34308079 802.82994963 -203.3984375 786.66796875 C-211.74023051 777.85641606 -216.08913662 768.56318634 -218.09912109 756.68066406 C-218.22676031 755.94122181 -218.35439953 755.20177956 -218.4859066 754.43992996 C-219.89169957 746.20800581 -221.16153624 737.95477964 -222.42564011 729.70014191 C-225.12633624 712.08365873 -227.91789178 694.48262531 -230.7734375 676.890625 C-231.03330193 675.28929781 -231.03330193 675.28929781 -231.29841614 673.65562057 C-232.18725435 668.18038873 -233.07722515 662.7053418 -233.96789551 657.23040771 C-235.83957819 645.72460098 -237.70540694 634.21784438 -239.5703125 622.7109375 C-239.84331932 621.02665083 -239.84331932 621.02665083 -240.12184143 619.30833817 C-243.95026362 595.6829264 -247.69869939 572.04567563 -251.40296936 548.40048218 C-252.3619159 542.2901564 -253.3391771 536.18303032 -254.33203125 530.078125 C-254.4565567 529.3118277 -254.58108215 528.5455304 -254.7093811 527.75601196 C-255.25919048 524.37690274 -255.81220507 520.99838995 -256.37011719 517.62060547 C-256.63743652 515.98696045 -256.63743652 515.98696045 -256.91015625 514.3203125 C-257.06234619 513.40008301 -257.21453613 512.47985352 -257.37133789 511.53173828 C-257.6875 509.25 -257.6875 509.25 -257.6875 506.25 C-258.925 506.353125 -260.1625 506.45625 -261.4375 506.5625 C-270.41073831 506.53428227 -278.89457145 501.99489731 -285.65234375 496.31640625 C-296.68133415 485.11806475 -298.15511368 471.56913512 -298.12109375 456.5 C-298.12567142 455.11100006 -298.1309816 453.72200236 -298.13697815 452.33300781 C-298.1458409 449.44196284 -298.14356439 446.55119512 -298.13354492 443.66015625 C-298.12204941 439.98891577 -298.14230958 436.31863645 -298.17146206 432.64752197 C-298.18996535 429.78525912 -298.18950409 426.92322085 -298.18382454 424.06091309 C-298.18360052 422.06043376 -298.20035411 420.059975 -298.21763611 418.05957031 C-298.11863897 404.95602627 -295.00657647 394.78570875 -285.83984375 385.34765625 C-279.37181542 379.26539502 -271.52925526 375.1734356 -262.52398682 375.09178162 C-261.29147942 375.07709839 -261.29147942 375.07709839 -260.03407288 375.06211853 C-258.69511208 375.05348534 -258.69511208 375.05348534 -257.32910156 375.04467773 C-256.38242111 375.03477814 -255.43574066 375.02487854 -254.46037292 375.01467896 C-251.33298234 374.98310546 -248.20557657 374.95832286 -245.078125 374.93359375 C-242.90907396 374.91302065 -240.74002689 374.89202408 -238.57098389 374.87062073 C-232.86313092 374.8154369 -227.15524199 374.76601131 -221.44732666 374.71777344 C-215.62240398 374.66753152 -209.7975335 374.61185949 -203.97265625 374.55664062 C-192.54431543 374.44910415 -181.11592928 374.34764912 -169.6875 374.25 C-170.4103846 373.74400269 -170.4103846 373.74400269 -171.14787292 373.2277832 C-173.36429966 371.6746686 -175.57864145 370.11860622 -177.79296875 368.5625 C-178.92986145 367.76682617 -178.92986145 367.76682617 -180.08972168 366.95507812 C-198.88064956 353.7350242 -216.61563076 337.20301988 -229.6875 318.25 C-230.08018066 317.69634766 -230.47286133 317.14269531 -230.87744141 316.57226562 C-253.26250713 284.98022502 -265.09311968 249.55173028 -269.6875 211.25 C-269.790625 210.42161621 -269.89375 209.59323242 -270 208.73974609 C-271.01273249 199.40271422 -270.92933086 190.00561779 -270.9375 180.625 C-270.93883942 179.71803375 -270.94017883 178.8110675 -270.94155884 177.87661743 C-270.925706 128.29494823 -270.925706 128.29494823 -260.6875 116.25 C-251.35852435 107.85392192 -240.47353199 109.58525876 -228.54980469 110.00732422 C-188.19555107 112.54285697 -146.94214759 127.84177854 -114.6875 152.25 C-114.5016333 151.425 -114.3157666 150.6 -114.12426758 149.75 C-106.95734266 118.08743123 -106.95734266 118.08743123 -102.6875 106.25 C-102.2845874 105.12803223 -102.2845874 105.12803223 -101.87353516 103.98339844 C-90.68098629 73.27642764 -72.21325901 46.7116118 -49.6875 23.25 C-49.1910498 22.72631836 -48.69459961 22.20263672 -48.18310547 21.66308594 C-35.70354686 8.53740235 -19.17369267 -8.79683896 0 0 Z " fill="#341000" transform="translate(522.6875,102.75)"/>
<path d="M0 0 C144.21 0 288.42 0 437 0 C436.34 5.94 435.68 11.88 435 18 C434.979375 20.31 434.95875 22.62 434.9375 25 C434.43854719 28.18531471 433.93630038 30.17883078 431.47119141 32.34082031 C428.0148333 34.70461549 424.34991221 36.60675674 420.62890625 38.515625 C416.08300057 40.85713997 412.15813067 43.66828182 408.1875 46.875 C407.33623535 47.55393311 407.33623535 47.55393311 406.46777344 48.24658203 C403.47251901 50.67671123 400.67143362 53.21860423 398 56 C394.827277 54.59614027 392.72364924 52.91428166 390.25 50.5 C372.40599104 34.41113946 350.08086727 26.37131635 326.1875 26.5625 C324.86959473 26.56934814 323.55168945 26.57619629 322.19384766 26.58325195 C312.5171202 26.74271907 304.10488194 27.67720995 295 31 C293.43572266 31.5259375 293.43572266 31.5259375 291.83984375 32.0625 C283.68919399 35.09138662 276.86695085 39.78111735 270 45 C269.19691406 45.60457031 268.39382813 46.20914063 267.56640625 46.83203125 C251.62367546 59.87608371 240.50316629 81.71733479 238 102 C235.714425 144.04902473 251.00692092 177.53898172 278.44921875 208.7890625 C288.04066865 219.40266692 298.01659637 229.81648375 309 239 C309.95003906 239.81597656 310.90007812 240.63195312 311.87890625 241.47265625 C322.29579872 250.40575646 332.90604752 259.09763322 344.3046875 266.7578125 C345.14386719 267.37269531 345.14386719 267.37269531 346 268 C346 268.33 346 268.66 346 269 C309.59111589 269.09157792 273.18225199 269.16205009 236.77327639 269.20426132 C232.47376936 269.20926408 228.17426255 269.21444137 223.87475586 269.21972656 C223.01881021 269.2207758 222.16286457 269.22182505 221.28098118 269.22290608 C207.42602651 269.24030598 193.57113832 269.27184139 179.71622307 269.30861118 C165.49723772 269.34603215 151.27828716 269.3682383 137.05925459 269.37635398 C128.28704005 269.38183936 119.51501338 269.39915741 110.74285667 269.43166587 C104.72547773 269.45282803 98.70819576 269.4591962 92.69078232 269.45400551 C89.22025687 269.45144635 85.75005947 269.45533814 82.27959251 269.4768219 C78.51210724 269.49673492 74.74542454 269.49193316 70.97792053 269.48101807 C69.88743394 269.49266943 68.79694736 269.5043208 67.67341572 269.51632524 C59.37224152 269.45135997 53.65309504 267.38856214 46.75 262.875 C39.24440967 255.02824648 37.78918753 245.32959541 36.25 234.9375 C36.00945187 233.40055288 35.76728544 231.86385835 35.52368164 230.32739258 C34.97761421 226.86478307 34.44190222 223.40075762 33.91259766 219.93554688 C32.89696681 213.30213328 31.84542765 206.67452986 30.79296875 200.046875 C29.21835588 190.12217129 27.65054428 180.19643229 26.08984375 170.26953125 C24.5744442 160.63565033 23.05373602 151.00278657 21.5 141.375 C21.3158252 140.23361572 21.13165039 139.09223145 20.94189453 137.91625977 C19.83267247 131.07020771 18.70809214 124.22680208 17.57670593 117.38438416 C13.18449514 90.81639592 8.89460887 64.23461174 4.77630234 37.62285614 C4.43871371 35.44532871 4.09942915 33.26807172 3.75967407 31.09088135 C3.12450903 27.01847617 2.49727195 22.94489055 1.87109375 18.87109375 C1.58584335 17.04672539 1.58584335 17.04672539 1.29483032 15.1855011 C1.12333466 14.06008408 0.95183899 12.93466705 0.77514648 11.77514648 C0.6246434 10.7996434 0.47414032 9.82414032 0.31907654 8.81907654 C0 6 0 6 0 0 Z " fill="#D0722F" transform="translate(293,609)"/>
<path d="M0 0 C7.07261158 5.44470099 13.94343258 11.68462147 19.36328125 18.796875 C21.96070064 21.87548962 23.76002278 22.97319702 27.76171875 23.3515625 C29.03015625 23.33029297 29.03015625 23.33029297 30.32421875 23.30859375 C31.59265625 23.29892578 31.59265625 23.29892578 32.88671875 23.2890625 C36.18876866 23.06991453 36.18876866 23.06991453 39.32421875 22.12109375 C40.03461429 20.81053646 40.69035032 19.47032799 41.32421875 18.12109375 C53.79826754 3.199605 69.24953115 -10.45685155 89.32421875 -12.87890625 C108.7804723 -14.13526385 125.75051136 -12.18515108 141.09936523 0.98193359 C155.06720096 13.60333828 162.29740338 28.2862901 163.4453125 47.10644531 C164.80325151 76.09844315 151.70049696 102.26008231 132.63671875 123.49609375 C131.97285156 124.20507812 131.30898438 124.9140625 130.625 125.64453125 C128.72421032 127.69054256 126.89372843 129.76880099 125.0703125 131.8828125 C121.2369279 136.27759287 117.199054 140.43797612 113.07421875 144.55859375 C112.32769043 145.3050415 111.58116211 146.05148926 110.81201172 146.82055664 C106.02515967 151.55831012 101.15422119 155.9393362 95.8515625 160.09375 C93.12099273 162.28411431 90.57438688 164.61195693 88.01171875 166.99609375 C82.29479579 172.25014085 76.2573256 176.99332031 70.11376953 181.72998047 C68.35679687 183.09576904 66.61747945 184.48102699 64.8828125 185.875 C58.67873729 190.84832513 52.36667283 195.59948074 45.82421875 200.12109375 C45.16566895 200.57806641 44.50711914 201.03503906 43.82861328 201.50585938 C34.18857912 208.07872192 34.18857912 208.07872192 29.57421875 208.18359375 C12.63893864 202.64705987 -2.34207618 186.68762785 -15.93603516 175.54492188 C-17.49526452 174.26883071 -19.05979225 172.99921994 -20.625 171.73046875 C-55.43260003 143.47787661 -97.34079744 108.50258424 -103.67578125 61.12109375 C-105.23103282 42.40328284 -101.51686801 25.123526 -89.92578125 9.93359375 C-66.60384262 -17.52468871 -29.32647844 -20.59275347 0 0 Z " fill="#F34B2E" transform="translate(659.67578125,673.87890625)"/>
<path d="M0 0 C1.27211055 -0.00352835 1.27211055 -0.00352835 2.5699203 -0.00712797 C5.44287271 -0.01384293 8.31578016 -0.013359 11.18873978 -0.01294994 C13.25684022 -0.01624701 15.32494002 -0.01997224 17.39303899 -0.02409142 C23.10052763 -0.03413734 28.80800575 -0.03783237 34.51550198 -0.04048073 C40.66151949 -0.0443761 46.80752862 -0.05395492 52.9535408 -0.0626936 C67.10558196 -0.0815439 81.25762118 -0.09171712 95.40967136 -0.10015428 C102.40019542 -0.1043584 109.39071861 -0.1095807 116.38124195 -0.11483881 C140.30154295 -0.13273013 164.22184419 -0.14772714 188.14215088 -0.155159 C189.64433394 -0.15563376 191.14651701 -0.15610965 192.64870007 -0.15658666 C193.76614311 -0.15694122 193.76614311 -0.15694122 194.90616076 -0.15730295 C198.68063128 -0.15850417 202.45510179 -0.15971961 206.2295723 -0.16094494 C207.35316335 -0.16130516 207.35316335 -0.16130516 208.49945322 -0.16167267 C232.79208015 -0.16956762 257.08465828 -0.1930029 281.3772639 -0.22550088 C307.04918116 -0.2597815 332.72106985 -0.27950849 358.39301038 -0.28280324 C361.21000371 -0.28322079 364.02699702 -0.28370036 366.84399033 -0.28422642 C367.88445633 -0.28441121 367.88445633 -0.28441121 368.94594185 -0.28459973 C380.11940712 -0.28693394 391.29281582 -0.30260621 402.46626091 -0.32306826 C413.6928551 -0.34330181 424.91938221 -0.34848127 436.14599749 -0.33929763 C442.23072502 -0.33473779 448.31526846 -0.33673672 454.39997101 -0.35605907 C459.9663829 -0.37358344 465.53247496 -0.37278068 471.09888974 -0.35716178 C473.11642385 -0.35476933 475.13397949 -0.35919324 477.15148053 -0.37099043 C479.88742111 -0.38600218 482.62221267 -0.37651145 485.35812378 -0.36076355 C486.54169523 -0.37609686 486.54169523 -0.37609686 487.74917722 -0.39173993 C492.94663503 -0.32614335 495.93675275 0.82411922 499.93074417 4.13422108 C501.30234989 6.87743251 501.07311481 9.0864196 501.09187698 12.15692616 C501.10148453 13.42196476 501.11109207 14.68700336 501.12099075 15.99037647 C501.12583904 17.37816659 501.13011779 18.76595881 501.13386917 20.15375233 C501.13962131 21.57381155 501.14537903 22.99387076 501.15114212 24.41392994 C501.16165342 27.3940209 501.16749494 30.37408488 501.17097855 33.35419178 C501.17645751 37.16745031 501.20047177 40.98035073 501.2289505 44.79349709 C501.24760384 47.72836302 501.25278395 50.66314326 501.25431442 53.59806347 C501.25733643 55.0034496 501.26534976 56.40883439 501.2784996 57.81416225 C501.29561119 59.78381344 501.29182765 61.75361235 501.28718948 63.72333241 C501.29083511 64.84315006 501.29448074 65.96296772 501.29823685 67.11671925 C500.87774087 70.56943395 500.05736966 72.39634196 497.93074417 75.13422108 C494.17633829 77.78824789 490.02563983 77.41555051 485.61539268 77.39428329 C484.7650113 77.39808897 483.91462991 77.40189464 483.03847939 77.40581563 C480.16967193 77.41617751 477.30106065 77.41221679 474.43223953 77.40837574 C472.36241171 77.41282564 470.29258559 77.41813886 468.22276199 77.42424446 C462.51977997 77.43846445 456.81685234 77.440087 451.11385512 77.43964756 C444.96922912 77.44129222 438.82462577 77.45435207 432.68001175 77.46584034 C419.93781999 77.48752486 407.19565115 77.49609916 394.45344524 77.50087534 C393.76074494 77.50113652 393.06804464 77.50139769 392.35435343 77.50166678 C391.31324779 77.5020572 391.31324779 77.5020572 390.25110971 77.50245549 C382.56390417 77.50553627 374.87670207 77.51204043 367.1894989 77.51866817 C343.97802587 77.53831655 320.76655657 77.55472093 297.55507469 77.55754471 C296.44120398 77.5576858 296.44120398 77.5576858 295.30483083 77.55782974 C292.29539373 77.55820823 289.28595663 77.55857223 286.27651953 77.55893272 C284.01135873 77.55920444 281.74619794 77.55948112 279.48103714 77.55975819 C278.73254221 77.55984621 277.98404727 77.55993423 277.21287068 77.56002492 C253.68894131 77.56293107 230.16509406 77.58503282 206.64119339 77.62128162 C180.22316707 77.66198889 153.80519671 77.68570313 127.38713729 77.68600422 C124.57129851 77.68610105 121.75545975 77.68626777 118.93962097 77.68648434 C118.24626997 77.68652845 117.55291897 77.68657257 116.83855733 77.68661802 C105.67077035 77.68773883 94.50306552 77.70516146 83.33530502 77.72830366 C72.11566309 77.75112245 60.89613098 77.75496193 49.67646445 77.74075436 C43.59573764 77.73356184 37.51529606 77.73454374 31.43460083 77.75716496 C25.87190449 77.77766147 20.30971434 77.77524201 14.74702404 77.75429011 C12.73089571 77.75077733 10.71473154 77.7557802 8.69865026 77.76999455 C5.96440614 77.78803522 3.23196582 77.77545313 0.49777794 77.75504684 C-0.68493597 77.7738919 -0.68493597 77.7738919 -1.89154309 77.79311767 C-7.58815475 77.70168887 -10.08335569 76.21339883 -14.06925583 72.13422108 C-15.43870879 69.39531515 -15.22684312 67.17729697 -15.26212692 64.111516 C-15.27818985 62.84647739 -15.29425278 61.58143879 -15.31080246 60.27806568 C-15.3222894 58.89028056 -15.33289803 57.50248792 -15.34269333 56.11468983 C-15.34801701 55.41668074 -15.35334068 54.71867165 -15.35882568 53.99951077 C-15.38555148 50.30443514 -15.40492751 46.60939322 -15.41935349 42.91425037 C-15.43269158 39.85763074 -15.4605405 36.80167892 -15.50138474 33.74530506 C-15.55071968 30.05356626 -15.57547529 26.36243307 -15.58258057 22.67037868 C-15.58929046 21.26494519 -15.60450613 19.85952507 -15.62847137 18.4542799 C-15.66014093 16.4847945 -15.65715666 14.51484484 -15.65275192 12.54510975 C-15.66083878 11.42529209 -15.66892563 10.30547443 -15.67725754 9.15172291 C-14.87646621 5.17740956 -13.13319706 3.69308033 -10.06925583 1.13422108 C-6.89817292 -0.45132038 -3.48228642 -0.00647085 0 0 Z " fill="#CF722F" transform="translate(268.0692558288574,504.86577892303467)"/>
<path d="M0 0 C1.53527344 0.01353516 1.53527344 0.01353516 3.1015625 0.02734375 C3.85179687 0.03894531 4.60203125 0.05054688 5.375 0.0625 C17.11591135 45.34887236 9.20809706 100.54394731 -12.70361328 141.34619141 C-13.5453782 142.91418489 -14.36564488 144.49367094 -15.18359375 146.07421875 C-37.87268225 189.1773381 -76.01772316 218.26189969 -120.625 236.0625 C-121.37118088 236.40561218 -122.11736176 236.74872437 -122.88615417 237.10223389 C-125.96970435 238.18335671 -128.34606025 238.3035233 -131.60864258 238.28955078 C-133.37991264 238.28932419 -133.37991264 238.28932419 -135.18696594 238.28909302 C-137.08408577 238.27360916 -137.08408577 238.27360916 -139.01953125 238.2578125 C-140.97326912 238.25356766 -140.97326912 238.25356766 -142.96647644 238.24923706 C-146.41722384 238.24162697 -149.86780098 238.22200135 -153.31848145 238.1998291 C-156.844459 238.17931388 -160.37046425 238.17022324 -163.89648438 238.16015625 C-170.80605921 238.13875272 -177.71552141 238.10464874 -184.625 238.0625 C-183.64897426 217.27651725 -183.64897426 217.27651725 -182.4375 208.0625 C-182.31221924 207.09594482 -182.18693848 206.12938965 -182.05786133 205.13354492 C-179.04957949 182.81765751 -175.70222307 160.49138124 -168.625 139.0625 C-168.12088536 137.45188813 -167.61698168 135.84121021 -167.11328125 134.23046875 C-151.35203014 85.34577327 -120.27820697 42.97074641 -74.54296875 18.875 C-51.9510752 7.45441018 -25.47207185 -0.29618688 0 0 Z " fill="#74C356" transform="translate(733.625,239.9375)"/>
<path d="M0 0 C39.92112195 -2.57094882 85.39994138 14.84616038 115.40234375 40.91015625 C168.09991657 87.93319333 183.04739672 158.24724841 188.81982422 225.70385742 C189.04407957 229.8063933 189.03687243 233.89260578 189 238 C181.55216783 238.20595828 174.10509074 238.34421424 166.6550293 238.43945312 C164.13066175 238.47922968 161.60647277 238.53347225 159.08276367 238.60351562 C141.94230239 239.06667929 128.47554781 237.54184265 113 230 C111.25021851 229.1970752 111.25021851 229.1970752 109.46508789 228.37792969 C106.63599744 227.03577569 103.87867112 225.61481328 101.125 224.125 C99.69269043 223.36255981 99.69269043 223.36255981 98.23144531 222.5847168 C71.93544654 208.37024394 49.29402768 188.36885718 32 164 C31.22140625 162.94039062 30.4428125 161.88078125 29.640625 160.7890625 C15.15878923 140.5574704 6.67172195 117.45071564 1.25 93.375 C1.05092041 92.49376465 0.85184082 91.6125293 0.64672852 90.70458984 C-2.48967306 75.91542621 -3.32966582 61.3018988 -3.26074219 46.22485352 C-3.24999727 43.43679134 -3.26072123 40.64937128 -3.2734375 37.86132812 C-3.28311959 24.97803089 -2.15704271 12.70837467 0 0 Z " fill="#73C356" transform="translate(282,240)"/>
<path d="M0 0 C3.31888852 1.35648378 5.8490286 3.77559191 8.51757812 6.11157227 C9.13745605 6.65064209 9.75733398 7.18971191 10.39599609 7.74511719 C16.37657166 13.03290559 21.79364374 18.71320187 26.95507812 24.79907227 C27.43686523 25.36464844 27.91865234 25.93022461 28.41503906 26.51293945 C36.47674911 36.0642563 43.42713472 46.15067232 49.95507812 56.79907227 C50.51171143 57.69360107 50.51171143 57.69360107 51.07958984 58.60620117 C65.78164973 82.37758154 74.1376005 110.13113013 77.67675781 137.72827148 C77.91342664 139.4891706 78.21283543 141.24145391 78.52539062 142.99047852 C79.04438458 147.56161762 78.58425235 149.89870226 75.91601562 153.71704102 C74.06844458 155.92987016 72.12130081 158.0409399 70.16601562 160.15844727 C28.30194144 206.12984378 15.80071076 277.0529289 11.60083008 336.67871094 C11.52952881 337.6800708 11.45822754 338.68143066 11.38476562 339.71313477 C11.32530762 340.59952637 11.26584961 341.48591797 11.20458984 342.39916992 C10.95507812 344.79907227 10.95507812 344.79907227 9.95507812 348.79907227 C2.03507813 348.79907227 -5.88492188 348.79907227 -14.04492188 348.79907227 C-14.27566406 346.2712207 -14.50640625 343.74336914 -14.74414062 341.13891602 C-17.61908242 310.27236222 -21.97362898 280.02374545 -29.04492188 249.79907227 C-29.26728516 248.82679688 -29.48964844 247.85452148 -29.71875 246.8527832 C-36.9524207 215.76959224 -53.09594958 180.71594716 -75.42407227 157.35620117 C-77.87750056 154.73903819 -79.0003936 153.15105771 -79.45507812 149.55688477 C-79.34035156 148.35805664 -79.225625 147.15922852 -79.10742188 145.92407227 C-79.04312988 145.2433667 -78.97883789 144.56266113 -78.91259766 143.86132812 C-78.66634654 141.50007671 -78.36238481 139.15178963 -78.04492188 136.79907227 C-77.92971191 135.9133252 -77.81450195 135.02757812 -77.69580078 134.11499023 C-71.22300603 86.25277553 -51.22089476 47.23328125 -17.48242188 13.04907227 C-16.5626355 12.1095874 -16.5626355 12.1095874 -15.62426758 11.15112305 C-4.09112954 -0.40198181 -4.09112954 -0.40198181 0 0 Z " fill="#73C356" transform="translate(512.044921875,129.200927734375)"/>
<path d="M0 0 C144.21 0 288.42 0 437 0 C436.34 5.94 435.68 11.88 435 18 C434.979375 20.31 434.95875 22.62 434.9375 25 C434.43854719 28.18531471 433.93630038 30.17883078 431.47119141 32.34082031 C428.0148333 34.70461549 424.34991221 36.60675674 420.62890625 38.515625 C416.08300057 40.85713997 412.15813067 43.66828182 408.1875 46.875 C407.33623535 47.55393311 407.33623535 47.55393311 406.46777344 48.24658203 C403.47251901 50.67671123 400.67143362 53.21860423 398 56 C394.827277 54.59614027 392.72364924 52.91428166 390.25 50.5 C372.54025689 34.53219884 350.77504468 26.88587506 327.15771484 26.37768555 C326.28969238 26.35488525 325.42166992 26.33208496 324.52734375 26.30859375 C323.75124756 26.29626709 322.97515137 26.28394043 322.17553711 26.27124023 C320 26 320 26 318.19898045 24.9988808 C315.5213744 23.78258564 313.57810051 23.74869345 310.64077568 23.74666691 C309.54722546 23.74105151 308.45367525 23.73543612 307.32698715 23.72965056 C305.52554675 23.7356222 305.52554675 23.7356222 303.68771362 23.74171448 C301.77360127 23.73620092 301.77360127 23.73620092 299.82081997 23.73057598 C296.27639713 23.72058316 292.73207312 23.72297152 289.18764281 23.72730291 C285.36622302 23.72977655 281.54482937 23.72071433 277.72341919 23.71292114 C271.10130237 23.70087053 264.47920963 23.69576793 257.85708237 23.69503975 C248.28038082 23.69371535 238.70373786 23.67861517 229.12705697 23.65954458 C213.58715329 23.62869589 198.04724813 23.6045323 182.50732422 23.58666992 C181.11189645 23.5850609 181.11189645 23.5850609 179.68827821 23.58341938 C169.3040276 23.57159361 158.9197764 23.56138878 148.53552246 23.55297852 C144.76765949 23.54990451 140.99979653 23.54681575 137.23193359 23.54370117 C136.30217267 23.54293583 135.37241175 23.54217049 134.41447626 23.54138196 C118.93088544 23.5283164 103.44733706 23.50370061 87.96377766 23.46995777 C78.40670928 23.44963039 68.84973158 23.4393835 59.29264142 23.44194698 C52.74972034 23.44297931 46.20687111 23.43338946 39.6639751 23.41530795 C35.88450219 23.4052287 32.10518816 23.40017129 28.32570648 23.40807533 C24.23643237 23.41652597 20.14756709 23.40208834 16.05831909 23.38526917 C14.85289739 23.39148098 13.64747568 23.3976928 12.40552604 23.40409285 C11.31719132 23.39586971 10.2288566 23.38764656 9.10754204 23.37917423 C7.69026072 23.37795255 7.69026072 23.37795255 6.24434745 23.37670618 C5.50371279 23.25239314 4.76307813 23.1280801 4 23 C1.69642191 19.54463286 1.42391256 17.27820549 0.875 13.1875 C0.70742188 11.98480469 0.53984375 10.78210938 0.3671875 9.54296875 C0 6 0 6 0 0 Z " fill="#AE4B10" transform="translate(293,609)"/>
<path d="M0 0 C2.9375 1.875 2.9375 1.875 5 5 C8.14199678 24.08108458 -5.94843159 47.0849758 -15 63 C-15.45890625 63.8132373 -15.9178125 64.62647461 -16.390625 65.46435547 C-26.52510512 83.28670187 -38.45816458 99.62415223 -52 115 C-52.66386719 115.77472656 -53.32773437 116.54945313 -54.01171875 117.34765625 C-60.22202651 124.46083783 -66.98078136 131.03742993 -73.70117188 137.66455078 C-74.91836914 138.86893799 -74.91836914 138.86893799 -76.16015625 140.09765625 C-76.89886963 140.82476807 -77.63758301 141.55187988 -78.39868164 142.30102539 C-80.11431386 143.73217179 -80.11431386 143.73217179 -80 145 C-59.79637097 139.78101895 -40.39230266 133.9929735 -22 124 C-21.39462402 123.67918457 -20.78924805 123.35836914 -20.16552734 123.02783203 C-11.05374539 118.1880428 -2.94802751 112.53090119 5 106 C5.8667334 105.29568848 5.8667334 105.29568848 6.75097656 104.57714844 C17.85800487 95.50832959 27.65491398 85.72822901 36 74 C36.33 74.66 36.66 75.32 37 76 C35.7816725 78.87035544 34.01474345 81.47765719 32.375 84.125 C31.87935547 84.9288916 31.38371094 85.7327832 30.87304688 86.56103516 C25.58438013 94.94353902 19.50007228 102.53441046 13 110 C12.51499023 110.55945313 12.02998047 111.11890625 11.53027344 111.6953125 C-10.15912995 136.51746316 -37.60111149 152.86927823 -68 165 C-68.74618088 165.34311218 -69.49236176 165.68622437 -70.26115417 166.03973389 C-73.34470435 167.12085671 -75.72106025 167.2410233 -78.98364258 167.22705078 C-80.75491264 167.22682419 -80.75491264 167.22682419 -82.56196594 167.22659302 C-84.45908577 167.21110916 -84.45908577 167.21110916 -86.39453125 167.1953125 C-88.34826912 167.19106766 -88.34826912 167.19106766 -90.34147644 167.18673706 C-93.79222384 167.17912697 -97.24280098 167.15950135 -100.69348145 167.1373291 C-104.219459 167.11681388 -107.74546425 167.10772324 -111.27148438 167.09765625 C-118.18105921 167.07625272 -125.09052141 167.04214874 -132 167 C-131.84637668 163.97258383 -131.69120506 160.94526007 -131.53515625 157.91796875 C-131.49217407 157.06779175 -131.44919189 156.21761475 -131.40490723 155.3416748 C-131.08724312 149.21149633 -130.64483904 143.10539093 -130 137 C-129.34 137 -128.68 137 -128 137 C-127.7510498 136.46205811 -127.50209961 135.92411621 -127.24560547 135.36987305 C-125.71406886 132.45599108 -123.92039154 129.80544344 -122.0703125 127.08203125 C-121.6839563 126.51218506 -121.2976001 125.94233887 -120.89953613 125.35522461 C-119.64416062 123.50572586 -118.38490647 121.65891466 -117.125 119.8125 C-116.69515808 119.18129242 -116.26531616 118.55008484 -115.82244873 117.89974976 C-101.74379675 97.2274109 -87.41230563 76.90867574 -71 58 C-70.08347656 56.93265625 -70.08347656 56.93265625 -69.1484375 55.84375 C-67.44982829 53.87948153 -65.73027434 51.93643468 -64 50 C-63.24976563 49.15695312 -62.49953125 48.31390625 -61.7265625 47.4453125 C-50.33490547 34.82212498 -38.57226988 22.30038339 -25 12 C-23.96875 11.19820313 -22.9375 10.39640625 -21.875 9.5703125 C-7.93096105 -1.15359433 -7.93096105 -1.15359433 0 0 Z " fill="#348E2A" transform="translate(681,311)"/>
<path d="M0 0 C12.69763771 4.81297208 23.52400289 15.31413263 33.296875 24.48046875 C35.51214976 26.54528409 37.75778314 28.53724317 40.0625 30.5 C47.98432504 37.3820855 55.2166451 45.00582313 62 53 C62.90141637 54.03856606 63.80385009 55.07624957 64.70703125 56.11328125 C71.73811164 64.20953757 78.50085572 72.47096214 85 81 C85.49628906 81.64904297 85.99257813 82.29808594 86.50390625 82.96679688 C94.76656425 93.82836109 102.52054423 105.02690511 110.1875 116.3125 C110.65315369 116.99593475 111.11880737 117.67936951 111.59857178 118.3835144 C112.93860091 120.3530014 114.27300986 122.32616683 115.60546875 124.30078125 C116.00490189 124.88761688 116.40433502 125.47445251 116.81587219 126.07907104 C120.18965328 131.10597274 123.20329376 135.73744551 123.73046875 141.86328125 C123.85131836 143.19456055 123.85131836 143.19456055 123.97460938 144.55273438 C124.04486328 145.46345703 124.11511719 146.37417969 124.1875 147.3125 C124.3102832 148.66118164 124.3102832 148.66118164 124.43554688 150.03710938 C124.92347944 155.70778782 125.03722874 161.31100979 125 167 C117.55216783 167.20595828 110.10509074 167.34421424 102.6550293 167.43945312 C100.13066175 167.47922968 97.60647277 167.53347225 95.08276367 167.60351562 C77.94230239 168.06667929 64.47554781 166.54184265 49 159 C47.25021851 158.1970752 47.25021851 158.1970752 45.46508789 157.37792969 C42.63599744 156.03577569 39.87867112 154.61481328 37.125 153.125 C35.69269043 152.36255981 35.69269043 152.36255981 34.23144531 151.5847168 C12.24393431 139.69922497 -6.5755606 123.75966776 -23 105 C-23.47066895 104.46584473 -23.94133789 103.93168945 -24.42626953 103.38134766 C-28 99.23772831 -28 99.23772831 -28 97 C-24.35769569 98.54065286 -22.01037578 100.7595123 -19.1875 103.5 C-4.34471484 117.35326615 14.89685014 127.47466663 34 134 C35.1653125 134.41765625 36.330625 134.8353125 37.53125 135.265625 C50.39209593 139.75070993 63.5644689 142.79459965 77 145 C73.41174081 141.31082102 69.76857661 137.74301779 65.875 134.375 C62.77520712 131.69132718 59.76839164 129.02792835 57 126 C57 125.34 57 124.68 57 124 C56.34 124 55.68 124 55 124 C53.625 122.671875 53.625 122.671875 52 120.75 C51.37609375 120.01394531 50.7521875 119.27789062 50.109375 118.51953125 C49.41328125 117.68808594 48.7171875 116.85664063 48 116 C47.24203125 115.11699219 46.4840625 114.23398437 45.703125 113.32421875 C22.168734 85.63008667 -8.73206279 45.8544992 -11.5625 8.4375 C-11 5 -11 5 -8.875 2 C-5.44816805 -0.38388309 -4.09024021 -0.35655892 0 0 Z " fill="#348E2A" transform="translate(346,311)"/>
<path d="M0 0 C4.2591818 2.03279131 5.42008063 4.67066686 6.953125 8.921875 C9.03271568 14.84715796 10.59538643 20.82125685 12 26.9375 C12.23460937 27.89333984 12.46921875 28.84917969 12.7109375 29.83398438 C17.98425013 52.55742562 19.82385137 75.9912768 21.6875 99.1875 C22.00518853 103.0440404 22.32520378 106.90038092 22.64595032 110.75666809 C22.84193558 113.12275999 23.03576131 115.4890322 23.22697449 117.85551453 C23.31409195 118.92566299 23.40120941 119.99581146 23.4909668 121.09838867 C23.57284241 122.10866623 23.65471802 123.11894379 23.73907471 124.15983582 C23.97758498 126.7560132 24.2994448 129.32644829 24.64428711 131.91015625 C25.06093875 135.55679408 24.74543882 138.45420034 23.7421875 142.01953125 C23.44860352 143.10991699 23.15501953 144.20030273 22.85253906 145.32373047 C22.52995117 146.47502441 22.20736328 147.62631836 21.875 148.8125 C14.76476002 175.66590884 10.59657702 203.1837399 8.64575195 230.87963867 C8.57445068 231.88099854 8.50314941 232.8823584 8.4296875 233.9140625 C8.37022949 234.8004541 8.31077148 235.6868457 8.24951172 236.60009766 C8 239 8 239 7 243 C-0.92 243 -8.84 243 -17 243 C-17.23074219 240.47214844 -17.46148437 237.94429687 -17.69921875 235.33984375 C-20.48809657 205.39730807 -24.75474846 176.10736591 -31.41503906 146.75952148 C-31.60807617 145.84887939 -31.80111328 144.9382373 -32 144 C-32.20359131 143.11989258 -32.40718262 142.23978516 -32.61694336 141.33300781 C-33.17027984 136.5183809 -32.74209266 131.87143382 -32.36328125 127.05078125 C-32.28410965 125.97749069 -32.20493805 124.90420013 -32.12336731 123.79838562 C-31.86200702 120.30234395 -31.58850514 116.80741428 -31.3125 113.3125 C-31.17337189 111.52283813 -31.17337189 111.52283813 -31.03143311 109.69702148 C-23.73262117 16.19815782 -23.73262117 16.19815782 -10 1 C-6.77732541 -0.6113373 -3.49413109 -0.44434037 0 0 Z " fill="#348E2A" transform="translate(515,235)"/>
<path d="M0 0 C4.004793 2.0023965 6.6587028 4.17998877 9 8 C10.16402727 11.49208181 10.21118508 14.39147772 10.31640625 18.07421875 C10.33718735 18.7580513 10.35796844 19.44188385 10.37937927 20.1464386 C10.44466154 22.3266921 10.50366017 24.50706405 10.5625 26.6875 C10.60570553 28.16732986 10.64932047 29.64714783 10.69335938 31.12695312 C10.80032083 34.75117622 10.90164823 38.37553189 11 42 C12.43666016 41.94501343 12.43666016 41.94501343 13.90234375 41.88891602 C17.4876447 41.76132048 21.07274946 41.68153942 24.65966797 41.61547852 C26.2059107 41.58047594 27.75192509 41.53285449 29.29736328 41.47192383 C43.78817236 40.91530463 43.78817236 40.91530463 48.96875 45.375 C53.19536522 49.93993504 54.44761726 53.70912455 54.24609375 60.015625 C53.66404886 64.70893937 51.46993772 67.79140995 48 70.8125 C43.61048878 74.01318527 40.46466351 74.15927154 35.14453125 74.31640625 C34.48289474 74.33718735 33.82125824 74.35796844 33.13957214 74.37937927 C31.03065148 74.44464727 28.92160865 74.50365344 26.8125 74.5625 C25.38084685 74.60570689 23.94920596 74.64932188 22.51757812 74.69335938 C19.01184846 74.80030506 15.50598214 74.90163641 12 75 C11.28136274 78.90961736 10.86361895 82.65230414 10.7890625 86.625 C10.76070312 87.66140625 10.73234375 88.6978125 10.703125 89.765625 C10.65104588 91.92170054 10.60677331 94.0779788 10.5703125 96.234375 C10.37797439 102.67770163 10.06887137 107.7124813 5.46484375 112.64453125 C0.53694694 116.41292293 -2.16709924 117.47252939 -8.32421875 117.41015625 C-12.83989322 116.71797257 -15.99857432 114.36880573 -19 111 C-21.60817474 106.54918987 -22.39806587 103.20742262 -22.51171875 98.0703125 C-22.54716797 96.78125 -22.58261719 95.4921875 -22.61914062 94.1640625 C-22.64223493 92.81771358 -22.66501755 91.47135928 -22.6875 90.125 C-22.72070883 88.75517629 -22.75520175 87.38538308 -22.79101562 86.015625 C-22.87330159 82.6771659 -22.94251928 79.33896315 -23 76 C-23.87736816 75.98541748 -24.75473633 75.97083496 -25.65869141 75.95581055 C-28.93549321 75.8945032 -32.21148944 75.82030667 -35.48779297 75.73754883 C-36.9017449 75.70443709 -38.31582464 75.67636284 -39.72998047 75.65356445 C-41.77105823 75.61976225 -43.81097928 75.56744036 -45.8515625 75.51171875 C-47.07697754 75.48553467 -48.30239258 75.45935059 -49.56494141 75.43237305 C-55.74712655 74.6542174 -59.9787504 71.85622641 -63.79296875 67.0859375 C-66.03814226 63.20592891 -66.41478087 59.4174163 -66 55 C-64.40987925 49.61023024 -61.72296046 46.10721083 -57 43 C-54.07252186 41.53626093 -51.32102994 41.68371836 -48.05859375 41.5 C-47.37571793 41.45939453 -46.6928421 41.41878906 -45.98927307 41.37695312 C-43.06328444 41.20302729 -40.13675083 41.03924328 -37.21020508 40.875 C-35.07609621 40.75376803 -32.94236242 40.62705712 -30.80859375 40.5 C-28.88744751 40.39171875 -28.88744751 40.39171875 -26.92749023 40.28125 C-24.11197457 40.32405594 -24.11197457 40.32405594 -23 39 C-22.74822561 36.85529014 -22.55524751 34.70363256 -22.38671875 32.55078125 C-22.27224718 31.21412716 -22.15698691 29.87754043 -22.04101562 28.54101562 C-21.86221685 26.43285333 -21.6884302 24.32477548 -21.52856445 22.21508789 C-21.37198087 20.17950129 -21.19350451 18.14675251 -21.01171875 16.11328125 C-20.91334717 14.89423096 -20.81497559 13.67518066 -20.71362305 12.41918945 C-19.71442437 7.63171854 -17.53506078 4.3955098 -13.9375 1.125 C-9.31545511 -0.64514485 -4.88061099 -0.6521815 0 0 Z " fill="#FEF4DE" transform="translate(696,713)"/>
<path d="M0 0 C2.34495602 3.51743404 2.25745527 4.97229334 2.2746582 9.13623047 C2.28419022 10.40119354 2.29372223 11.66615662 2.30354309 12.9694519 C2.30328163 14.35203072 2.30234444 15.73460955 2.30078125 17.1171875 C2.30466885 18.53581874 2.30900366 19.95444882 2.31376648 21.37307739 C2.32122879 24.34722668 2.32093781 27.32125726 2.31567383 30.29541016 C2.30988527 34.10082559 2.32679472 37.90575334 2.3500185 41.71108818 C2.36477573 44.64168118 2.36562476 47.57215734 2.36250877 50.50278091 C2.36302119 51.9053659 2.36824409 53.30795756 2.37832069 54.71050644 C2.39070207 56.67529312 2.38194133 58.64017836 2.37231445 60.60498047 C2.37294388 61.72178192 2.3735733 62.83858337 2.3742218 63.98922729 C1.94605001 67.43405048 1.12121242 69.2663028 -1 72 C-4.73250708 74.62804342 -8.81106922 74.2755859 -13.19155502 74.24609566 C-14.02853863 74.24840335 -14.86552223 74.25071103 -15.72786897 74.25308865 C-18.55105971 74.25841028 -21.37402534 74.24938662 -24.19720459 74.24050903 C-26.23418394 74.24138066 -28.27116306 74.24313084 -30.30814099 74.24568737 C-35.92010799 74.25017338 -41.5319991 74.24214001 -47.14395642 74.23213124 C-53.19029572 74.22351707 -59.23663053 74.22641546 -65.28297424 74.22793579 C-75.7634961 74.22898593 -86.24399596 74.22276547 -96.72451019 74.21146011 C-107.71808744 74.19963167 -118.71165478 74.19192935 -129.70523834 74.18975449 C-130.73002935 74.18954827 -130.73002935 74.18954827 -131.7755232 74.18933788 C-135.2450295 74.18866123 -138.71453581 74.18805846 -142.18404213 74.18748413 C-166.76739551 74.18328176 -191.35073594 74.16980273 -215.93408203 74.15087891 C-239.81852143 74.13251429 -263.7029573 74.11834498 -287.58740234 74.10986328 C-288.3234458 74.10960023 -289.05948926 74.10933718 -289.81783707 74.10906615 C-297.20939473 74.10642914 -304.60095241 74.10387751 -311.99251012 74.10138843 C-327.05036582 74.09631582 -342.10822129 74.09067331 -357.16607666 74.08468628 C-358.20461198 74.08427441 -358.20461198 74.08427441 -359.26412781 74.08385422 C-405.50942403 74.06544859 -451.75471267 74.03371613 -498 74 C-498 73.67 -498 73.34 -498 73 C-349.17 73 -200.34 73 -47 73 C-47 69.7 -47 66.4 -47 63 C-46.7437877 59.99086827 -46.45265088 57.00075102 -46.125 54 C-44.28204408 35.73433339 -43.7940557 17.33477159 -43 -1 C-41.58521362 -1.03758423 -41.58521362 -1.03758423 -40.1418457 -1.07592773 C-36.62871337 -1.17129809 -33.11573292 -1.27051725 -29.6027832 -1.37231445 C-28.08492245 -1.41551548 -26.56701774 -1.45720048 -25.04907227 -1.49731445 C-22.86200741 -1.55537812 -20.67516082 -1.61896656 -18.48828125 -1.68359375 C-17.17384033 -1.72025146 -15.85939941 -1.75690918 -14.50512695 -1.79467773 C-11.1007093 -1.90408748 -11.1007093 -1.90408748 -8.23120117 -2.59790039 C-4.79670482 -3.21685383 -2.88098432 -1.79261247 0 0 Z " fill="#A84810" transform="translate(767,508)"/>
<path d="M0 0 C3.7877708 0.43576124 5.90388761 2.32815281 8.75 4.75 C9.70777344 5.55308594 10.66554688 6.35617187 11.65234375 7.18359375 C12.44487549 7.85237549 12.44487549 7.85237549 13.25341797 8.53466797 C16.58030204 11.32582791 19.94723995 14.06785038 23.3125 16.8125 C23.9818457 17.36325195 24.65119141 17.91400391 25.34082031 18.48144531 C28.30734524 20.90403343 31.24427053 23.20887106 34.48046875 25.26171875 C35.31191406 25.83535156 36.14335938 26.40898438 37 27 C37 27.66 37 28.32 37 29 C19.84 29 2.68 29 -15 29 C-12.36 23.72 -9.72 18.44 -7 13 C-4.56240805 8.08108986 -4.56240805 8.08108986 -2.12890625 3.16015625 C-1 1 -1 1 0 0 Z " fill="#AD490F" transform="translate(599,848)"/>
<path d="M0 0 C39.58499649 0.1047955 79.16997615 0.21461533 118.75494 0.33111694 C123.43468971 0.34488553 128.11443954 0.35861277 132.79418945 0.37231445 C133.7257926 0.37504276 134.65739575 0.37777106 135.61722929 0.38058204 C150.67597795 0.42458483 165.73473387 0.46524325 180.79349517 0.50465261 C196.26006803 0.54520417 211.72662752 0.58938014 227.19318062 0.63687855 C236.72687921 0.66604396 246.26057697 0.69242594 255.79429305 0.71517897 C262.34341393 0.7310806 268.89251853 0.75052182 275.44162124 0.77266841 C279.21274746 0.78531884 282.98386154 0.79648368 286.75500298 0.80341911 C315.75065019 0.85859778 315.75065019 0.85859778 330 2 C330 2.33 330 2.66 330 3 C329.12601563 3.05945801 329.12601563 3.05945801 328.234375 3.12011719 C316.82758963 3.93168486 306.01798896 5.08744503 295.01953125 8.29296875 C292 9 292 9 289 8 C293.95 6.515 293.95 6.515 299 5 C299 4.34 299 3.68 299 3 C200.99 2.67 102.98 2.34 2 2 C2 3.98 2 5.96 2 8 C1.67 8 1.34 8 1 8 C0.67 5.36 0.34 2.72 0 0 Z " fill="#DC7D37" transform="translate(296,631)"/>
<path d="M0 0 C4.55671592 1.51890531 8.31723292 3.95402262 12 7 C12 7.33 12 7.66 12 8 C-20.34 8 -52.68 8 -86 8 C-81.62263347 5.81131673 -78.39927303 5.69413866 -73.65136719 5.68115234 C-72.39228043 5.66608391 -72.39228043 5.66608391 -71.10775757 5.65071106 C-68.33747025 5.6198577 -65.56727967 5.60283794 -62.796875 5.5859375 C-60.8744422 5.56722759 -58.95201763 5.54765431 -57.02960205 5.5272522 C-51.97278695 5.47590636 -46.91594521 5.43629371 -41.85900879 5.39910889 C-36.69760537 5.35908465 -31.53631298 5.30798509 -26.375 5.2578125 C-16.25007796 5.16102416 -6.12509327 5.07662862 4 5 C4 4.34 4 3.68 4 3 C2.68 2.34 1.36 1.68 0 1 C0 0.67 0 0.34 0 0 Z " fill="#FEDF5F" transform="translate(342,470)"/>
<path d="M0 0 C0.33 0.66 0.66 1.32 1 2 C0.18310547 3.78417969 0.18310547 3.78417969 -1.1328125 5.921875 C-1.60976563 6.70046875 -2.08671875 7.4790625 -2.578125 8.28125 C-3.08859375 9.0959375 -3.5990625 9.910625 -4.125 10.75 C-4.61226562 11.54921875 -5.09953125 12.3484375 -5.6015625 13.171875 C-8.44201813 17.7649522 -11.43069132 21.94693886 -15 26 C-15 23.28070943 -14.94379835 21.5167956 -14 19 C-13.34 18.525625 -12.68 18.05125 -12 17.5625 C-9.76677374 16.18628929 -9.76677374 16.18628929 -9.66015625 13.765625 C-8.77533 10.05877895 -6.90125354 8.06766259 -4.4375 5.1875 C-3.61121094 4.21167969 -2.78492188 3.23585938 -1.93359375 2.23046875 C-1.29550781 1.49441406 -0.65742187 0.75835937 0 0 Z " fill="#399D31" transform="translate(717,385)"/>
<path d="M0 0 C4.92245612 4.43021051 8.29931564 9.64598032 11.875 15.1875 C12.78378906 16.55938477 12.78378906 16.55938477 13.7109375 17.95898438 C14.278125 18.83232422 14.8453125 19.70566406 15.4296875 20.60546875 C15.94772949 21.40106201 16.46577148 22.19665527 16.99951172 23.01635742 C17.49475342 23.9982605 17.49475342 23.9982605 18 25 C17.67 25.66 17.34 26.32 17 27 C16.62713867 26.43490723 16.25427734 25.86981445 15.87011719 25.28759766 C14.17287162 22.72697981 12.46166278 20.17600063 10.75 17.625 C10.16347656 16.73554688 9.57695312 15.84609375 8.97265625 14.9296875 C8.39902344 14.07890625 7.82539063 13.228125 7.234375 12.3515625 C6.71069336 11.56604004 6.18701172 10.78051758 5.64746094 9.97119141 C3.90400871 7.88514616 2.49731658 7.01127078 0 6 C0 4 0 2 0 0 Z " fill="#2B8624" transform="translate(445,413)"/>
<path d="M0 0 C-0.33 1.32 -0.66 2.64 -1 4 C-1 3.01 -1 2.02 -1 1 C-2.17949219 1.49113281 -2.17949219 1.49113281 -3.3828125 1.9921875 C-7.97521422 3.27171195 -12.13792039 3.21774403 -16.875 3.125 C-17.75414062 3.11597656 -18.63328125 3.10695312 -19.5390625 3.09765625 C-21.6928271 3.07424577 -23.84645014 3.0383801 -26 3 C-18.13377078 -1.10814851 -8.67101154 -0.13408781 0 0 Z " fill="#7FDF66" transform="translate(739,240)"/>
<path d="M0 0 C0.33 0 0.66 0 1 0 C1 7.26 1 14.52 1 22 C0.34 22.33 -0.32 22.66 -1 23 C-2.28195532 19.15413405 -2.18415545 15.50677403 -2.1875 11.5 C-2.19974609 10.72785156 -2.21199219 9.95570313 -2.22460938 9.16015625 C-2.23476991 5.2517352 -2.21572048 3.32358072 0 0 Z " fill="#F25B3E" transform="translate(708,791)"/>
<path d="M0 0 C0.33 0 0.66 0 1 0 C0.67 5.94 0.34 11.88 0 18 C-3.96 19.98 -3.96 19.98 -8 22 C-8.66 21.67 -9.32 21.34 -10 21 C-8.88496094 20.52046875 -7.76992188 20.0409375 -6.62109375 19.546875 C-4.34011962 18.24346121 -3.221319 17.49573443 -2.14111328 15.07617188 C-1.64000388 12.79904935 -1.31426592 10.56778399 -1.0625 8.25 C-0.89524414 7.06083984 -0.89524414 7.06083984 -0.72460938 5.84765625 C-0.45504648 3.90211534 -0.22368076 1.95134838 0 0 Z " fill="#250B00" transform="translate(728,623)"/>
<path d="M0 0 C0.33 0 0.66 0 1 0 C2.16185221 6.95024168 1.66869149 11.88097869 -0.4375 18.5625 C-0.80198242 19.78936523 -0.80198242 19.78936523 -1.17382812 21.04101562 C-1.76759088 23.03186722 -2.38167118 25.01664079 -3 27 C-3.33 27 -3.66 27 -4 27 C-3.28174711 20.97504376 -2.39912131 14.99057867 -1.4375 9 C-1.29892578 8.12988281 -1.16035156 7.25976562 -1.01757812 6.36328125 C-0.67957148 4.24199817 -0.33995416 2.12097184 0 0 Z " fill="#38A034" transform="translate(538,362)"/>
<path d="M0 0 C4.82675589 2.41337795 7.69984002 5.86062408 11 10 C9.06115111 9.71743908 7.12394039 9.4236207 5.1875 9.125 C4.10855469 8.96257812 3.02960938 8.80015625 1.91796875 8.6328125 C-1 8 -1 8 -4 6 C-2.35 5.67 -0.7 5.34 1 5 C1 5.66 1 6.32 1 7 C2.32 6.67 3.64 6.34 5 6 C4.175 5.38125 3.35 4.7625 2.5 4.125 C1.675 3.42375 0.85 2.7225 0 2 C0 1.34 0 0.68 0 0 Z " fill="#7ECB5C" transform="translate(413,447)"/>
<path d="M0 0 C1.60875 0.2784375 1.60875 0.2784375 3.25 0.5625 C6.40391546 0.9304568 8.09818492 1.04465343 11 0 C9.33784732 1.33895632 7.67036393 2.67130142 6 4 C4.9171875 4.86625 4.9171875 4.86625 3.8125 5.75 C2 7 2 7 0 7 C0 4.69 0 2.38 0 0 Z " fill="#F6D15D" transform="translate(614,248)"/>
<path d="M0 0 C0.66 0.33 1.32 0.66 2 1 C-4.75 5 -4.75 5 -7 5 C-6.67 6.65 -6.34 8.3 -6 10 C-6.99 10 -7.98 10 -9 10 C-9 9.01 -9 8.02 -9 7 C-10.65 7.33 -12.3 7.66 -14 8 C-11.52010087 5.14181117 -8.86353122 3.80106607 -5.4375 2.25 C-4.46683594 1.80140625 -3.49617187 1.3528125 -2.49609375 0.890625 C-1.67238281 0.59671875 -0.84867188 0.3028125 0 0 Z " fill="#2D8826" transform="translate(656,437)"/>
<path d="M0 0 C-1.38788802 1.30020011 -2.78569258 2.5898193 -4.1875 3.875 C-4.96480469 4.59429687 -5.74210938 5.31359375 -6.54296875 6.0546875 C-8.97689776 7.9817092 -11.07536646 9.01300111 -14 10 C-14.33 8.68 -14.66 7.36 -15 6 C-14.2575 6.12375 -13.515 6.2475 -12.75 6.375 C-11.38875 6.189375 -11.38875 6.189375 -10 6 C-8.61876037 4.03277992 -7.28511874 2.03131672 -6 0 C-3.33810498 -1.17436545 -2.61016906 -1.30508453 0 0 Z " fill="#38A133" transform="translate(676,439)"/>
<path d="M0 0 C2.99220268 1.36370299 5.29026529 2.94908083 7.75 5.125 C8.67039062 5.93324219 8.67039062 5.93324219 9.609375 6.7578125 C10.06828125 7.16773438 10.5271875 7.57765625 11 8 C10.34 9.32 9.68 10.64 9 12 C7.49405319 10.38050958 5.99539332 8.75424026 4.5 7.125 C3.6646875 6.22007812 2.829375 5.31515625 1.96875 4.3828125 C0 2 0 2 0 0 Z " fill="#3CA034" transform="translate(318,408)"/>
<path d="M0 0 C3.30244841 3.09295596 5.13952782 6.54286466 7.25 10.5 C7.81460937 11.51513672 7.81460937 11.51513672 8.390625 12.55078125 C9.34270892 14.32543767 10.17976453 16.1606841 11 18 C10.67 18.99 10.34 19.98 10 21 C9.59007812 20.14535156 9.18015625 19.29070312 8.7578125 18.41015625 C8.21898437 17.30542969 7.68015625 16.20070313 7.125 15.0625 C6.59132813 13.96035156 6.05765625 12.85820312 5.5078125 11.72265625 C4.28340155 8.90595489 4.28340155 8.90595489 2 8 C1.3671875 6.15234375 1.3671875 6.15234375 0.875 3.9375 C0.70742188 3.20402344 0.53984375 2.47054688 0.3671875 1.71484375 C0.24601562 1.14894531 0.12484375 0.58304687 0 0 Z " fill="#80DC64" transform="translate(432,325)"/>
<path d="M0 0 C0.845625 0.00386719 1.69125 0.00773438 2.5625 0.01171875 C5.11537729 0.32673726 6.79013935 1.02853004 9 2.3125 C5.81175432 3.90662284 2.37103338 3.41424735 -1.125 3.375 C-1.87910156 3.37048828 -2.63320313 3.36597656 -3.41015625 3.36132812 C-5.27347127 3.34953499 -7.13674555 3.33159942 -9 3.3125 C-5.94295868 0.63051236 -4.05569345 -0.08037197 0 0 Z " fill="#FEE8D0" transform="translate(721,754.6875)"/>
<path d="M0 0 C0.33 0 0.66 0 1 0 C1.19390729 2.31197155 1.37996367 4.6246029 1.5625 6.9375 C1.66691406 8.22527344 1.77132812 9.51304687 1.87890625 10.83984375 C1.91886719 11.88269531 1.95882812 12.92554688 2 14 C1.67 14.33 1.34 14.66 1 15 C0.76924918 16.34747084 0.58846937 17.70377565 0.4375 19.0625 C0.293125 20.361875 0.14875 21.66125 0 23 C-0.33 23 -0.66 23 -1 23 C-1.10920422 15.25863399 -0.97159933 7.68604474 0 0 Z M3 11 C3.33 11.66 3.66 12.32 4 13 C3.34 12.67 2.68 12.34 2 12 C2.33 11.67 2.66 11.34 3 11 Z " fill="#A33F08" transform="translate(722,553)"/>
<path d="M0 0 C3.01969936 1.50984968 3.40521919 3.81075302 4.6875 6.875 C5.14511719 7.94492187 5.60273437 9.01484375 6.07421875 10.1171875 C7 13 7 13 6 16 C5.34 14.02 4.68 12.04 4 10 C3.01 10.33 2.02 10.66 1 11 C1.020625 10.113125 1.04125 9.22625 1.0625 8.3125 C1.00713781 5.37830369 0.6694266 2.84506304 0 0 Z " fill="#E07D35" transform="translate(534,759)"/>
<path d="M0 0 C4.91935902 4.11619836 9.52647956 8.40410362 14 13 C13.34 13.66 12.68 14.32 12 15 C10.18159615 13.06775868 8.37025532 11.12966092 6.5625 9.1875 C6.04623047 8.64029297 5.52996094 8.09308594 4.99804688 7.52929688 C2.68923395 5.03940058 1.08641486 3.25924458 0 0 Z " fill="#E6C758" transform="translate(305,436)"/>
<path d="M0 0 C0.99 0.66 1.98 1.32 3 2 C1.92492371 3.29854721 0.83956264 4.58858361 -0.25 5.875 C-0.85328125 6.59429687 -1.4565625 7.31359375 -2.078125 8.0546875 C-3.97087634 9.97052118 -5.53657727 10.96449045 -8 12 C-7.566875 11.44570313 -7.13375 10.89140625 -6.6875 10.3203125 C-6.130625 9.59585937 -5.57375 8.87140625 -5 8.125 C-4.443125 7.40570313 -3.88625 6.68640625 -3.3125 5.9453125 C-1.81356623 4.1147915 -1.81356623 4.1147915 -2 2 C-1.34 2 -0.68 2 0 2 C0 1.34 0 0.68 0 0 Z " fill="#39A033" transform="translate(689,421)"/>
<path d="M0 0 C0.66 0.33 1.32 0.66 2 1 C2.8125 3.875 2.8125 3.875 3 7 C1.625 8.875 1.625 8.875 0 10 C-0.33 10 -0.66 10 -1 10 C-1.125 2.25 -1.125 2.25 0 0 Z " fill="#78CD5C" transform="translate(559,403)"/>
<path d="M0 0 C0.99 0.33 1.98 0.66 3 1 C3.2954439 6.02254631 2.98514628 8.89542386 0 13 C-1.36421031 10.27157939 -0.87807211 8.39046682 -0.5625 5.375 C-0.40974609 3.87066406 -0.40974609 3.87066406 -0.25390625 2.3359375 C-0.17011719 1.56507813 -0.08632813 0.79421875 0 0 Z " fill="#70B650" transform="translate(587,268)"/>
<path d="M0 0 C0.33 0.66 0.66 1.32 1 2 C0.02501855 3.5027237 -0.95509389 5.00211963 -1.9375 6.5 C-2.75541016 7.75296875 -2.75541016 7.75296875 -3.58984375 9.03125 C-4.05519531 9.6809375 -4.52054688 10.330625 -5 11 C-5.33 11 -5.66 11 -6 11 C-6.125 7.625 -6.125 7.625 -6 4 C-5.34 3.34 -4.68 2.68 -4 2 C-3.67 2.66 -3.34 3.32 -3 4 C-2.01 2.68 -1.02 1.36 0 0 Z " fill="#7CCD5C" transform="translate(558,437)"/>
<path d="M0 0 C1.37149501 2.74299002 0.83290956 4.08481654 0 7 C-1.5625 9.3125 -1.5625 9.3125 -3 11 C-3.66 10.67 -4.32 10.34 -5 10 C-3.66511872 6.40608886 -2.03977277 3.24509304 0 0 Z " fill="#7AD360" transform="translate(463,181)"/>
<path d="M0 0 C3.39672268 0.45725113 5.24234171 1.7959627 7.75 4.0625 C8.67039062 4.88427734 8.67039062 4.88427734 9.609375 5.72265625 C10.29773438 6.35494141 10.29773438 6.35494141 11 7 C6.097602 7 2.76458973 3.92801423 -1 1 C-0.67 0.67 -0.34 0.34 0 0 Z " fill="#7DD963" transform="translate(510,129)"/>
<path d="M0 0 C0.66 0.99 1.32 1.98 2 3 C1.01 3.33 0.02 3.66 -1 4 C-1.33 4.66 -1.66 5.32 -2 6 C-3.30915279 7.03145371 -4.64082143 8.03542166 -6 9 C-6.66 8.67 -7.32 8.34 -8 8 C-5.36 5.36 -2.72 2.72 0 0 Z " fill="#FEDE62" transform="translate(709,444)"/>
<path d="M0 0 C1.15957207 3.47871621 0.77456651 4.34219645 -0.4375 7.6875 C-0.72496094 8.49574219 -1.01242187 9.30398438 -1.30859375 10.13671875 C-1.65083984 11.05904297 -1.65083984 11.05904297 -2 12 C-2.33 12 -2.66 12 -3 12 C-3 8.7 -3 5.4 -3 2 C-2.34 2 -1.68 2 -1 2 C-0.67 1.34 -0.34 0.68 0 0 Z " fill="#83DB66" transform="translate(542,358)"/>
<path d="M0 0 C3.94139078 1.66751148 6.7892812 4.22710649 10 7 C8 7 6 7 4 7 C3.566875 6.0409375 3.566875 6.0409375 3.125 5.0625 C2.17176549 2.84793921 2.17176549 2.84793921 0 2 C0 1.34 0 0.68 0 0 Z " fill="#C05212" transform="translate(620,864)"/>
<path d="M0 0 C0.33 0.66 0.66 1.32 1 2 C-0.1875 5.0625 -0.1875 5.0625 -2 8 C-4.1875 8.875 -4.1875 8.875 -6 9 C-2.25 2.25 -2.25 2.25 0 0 Z " fill="#7AD560" transform="translate(472,168)"/>
<path d="M0 0 C0.33 0 0.66 0 1 0 C2.62950412 4.12168689 3.26264601 6.70700357 2 11 C0 9 0 9 -0.1953125 6.8359375 C-0.17210937 6.02382813 -0.14890625 5.21171875 -0.125 4.375 C-0.10695313 3.55773437 -0.08890625 2.74046875 -0.0703125 1.8984375 C-0.04710937 1.27195312 -0.02390625 0.64546875 0 0 Z " fill="#BB4F10" transform="translate(295,620)"/>
<path d="M0 0 C0.66 0.99 1.32 1.98 2 3 C-3.2734375 6.22265625 -3.2734375 6.22265625 -5 7 C-5.66 6.67 -6.32 6.34 -7 6 C-4.69 4.02 -2.38 2.04 0 0 Z " fill="#318929" transform="translate(696,409)"/>
<path d="M0 0 C0.33 0.66 0.66 1.32 1 2 C0.00390625 3.9453125 0.00390625 3.9453125 -1.4375 6.125 C-1.91058594 6.84945313 -2.38367188 7.57390625 -2.87109375 8.3203125 C-3.24363281 8.87460937 -3.61617187 9.42890625 -4 10 C-4.65234375 8.203125 -4.65234375 8.203125 -5 6 C-3.63510623 3.66629928 -1.8580962 1.99405446 0 0 Z " fill="#3EA236" transform="translate(717,385)"/>
<path d="M0 0 C2.31 0 4.62 0 7 0 C5.71034824 1.37562854 4.37310707 2.70766393 3 4 C2.34 4 1.68 4 1 4 C0.67 5.32 0.34 6.64 0 8 C0 5.36 0 2.72 0 0 Z " fill="#FCE165" transform="translate(756,610)"/>
<path d="M0 0 C3.37503669 1.1858237 5.64722731 2.27573689 8 5 C6.35 5.33 4.7 5.66 3 6 C3 4.68 3 3.36 3 2 C2.01 1.67 1.02 1.34 0 1 C0 0.67 0 0.34 0 0 Z " fill="#7DD661" transform="translate(373,265)"/>
<path d="M0 0 C2.2477975 2.05233685 3.0022242 3.00667261 4 6 C1.97954558 5.39816251 -0.02111039 4.72693904 -2 4 C-2.33 3.34 -2.66 2.68 -3 2 C-2.01 1.34 -1.02 0.68 0 0 Z " fill="#369F34" transform="translate(374,454)"/>
<path d="M0 0 C0.33 1.32 0.66 2.64 1 4 C-0.4375 6.25 -0.4375 6.25 -2 8 C-2.99 7.67 -3.98 7.34 -5 7 C-3.35 4.69 -1.7 2.38 0 0 Z " fill="#2C8625" transform="translate(564,431)"/>
<path d="M0 0 C3.00617269 3.00617269 2.59585316 5.82381598 3 10 C2.34 9.34 1.68 8.68 1 8 C1 7.01 1 6.02 1 5 C0.34 5 -0.32 5 -1 5 C-0.67 3.35 -0.34 1.7 0 0 Z " fill="#F6D85F" transform="translate(259,350)"/>
<path d="M0 0 C2.5 2.3125 2.5 2.3125 5 5 C5 5.99 5 6.98 5 8 C3.02 6.68 1.04 5.36 -1 4 C-0.67 2.68 -0.34 1.36 0 0 Z " fill="#7DD662" transform="translate(417,303)"/>
<path d="M0 0 C0.66 0.66 1.32 1.32 2 2 C2.99 2 3.98 2 5 2 C3.69593116 4.01920337 2.36176581 6.01924973 1 8 C0.67 8 0.34 8 0 8 C0 5.36 0 2.72 0 0 Z " fill="#F02F19" transform="translate(706,811)"/>
<path d="M0 0 C0.33 0.66 0.66 1.32 1 2 C-0.65 3.98 -2.3 5.96 -4 8 C-4.66 7.67 -5.32 7.34 -6 7 C-4.02 4.69 -2.04 2.38 0 0 Z " fill="#2B8623" transform="translate(610,369)"/>
<path d="M0 0 C2.0625 0.4375 2.0625 0.4375 4 1 C2.35 2.65 0.7 4.3 -1 6 C-1.042721 4.33388095 -1.04063832 2.66617115 -1 1 C-0.67 0.67 -0.34 0.34 0 0 Z " fill="#7BD25E" transform="translate(583,282)"/>
</svg>
